# xmcd CD database file
#
# Track frame offsets:
#	150
#	17425
#	34585
#	52262
#	69922
#	87087
#	104307
#	121502
#	138680
#	155442
#	172195
#	189270
#	206412
#	223400
#	240667
#	257822
#	275167
#	292485
#	309812
#
# Disc length: 4361 seconds
#
# Revision: 0
# Processed by: cddbd v1.5.2PL0 Copyright (c) Steve Scherf et al.
# Submitted via: CDex 1.51
#
DISCID=1a110713
DTITLE=Royal Records - Platinum Edition CD 1/2
DYEAR=2007
DGENRE=Country
TTITLE0=Hanky Panky RYL 340 (v)
TTITLE1=Hanky Panky RYL 340
TTITLE2=Magic Carpet Ride RYL 253 (V)
TTITLE3=Magic Carpet Ride RYL 253
TTITLE4=Spirit in the Sky RYL 341 (V)
TTITLE5=Spirit in the Sky RYL 341
TTITLE6=Im Only In It For the Love RYL 159 (V)
TTITLE7=Im Only In It For the Love RYL 159
TTITLE8=I Only Want to be with You RYL 254 (V)
TTITLE9=I Only Want to be with You RYL 254
TTITLE10=She Dont know shes beautiful RYL 342 (V)
TTITLE11=She Dont know shes beautiful RYL 342 (H)
TTITLE12=She Dont know shes beautiful RYL 342
TTITLE13=Step that step RYL 343 (V)
TTITLE14=Step that step RYL 343
TTITLE15=Do Ya RYL 160 (V)
TTITLE16=Do Ya RYL 160
TTITLE17=Walk this way RYL 344 (V)
TTITLE18=Walk this way RYL 344
EXTD=YEAR: 2007
EXTT0=
EXTT1=
EXTT2=
EXTT3=
EXTT4=
EXTT5=
EXTT6=
EXTT7=
EXTT8=
EXTT9=
EXTT10=
EXTT11=
EXTT12=
EXTT13=
EXTT14=
EXTT15=
EXTT16=
EXTT17=
EXTT18=
PLAYORDER=
